<?xml version="1.0" encoding="UTF-8"?>
<!--Generator: Apple Native CoreSVG 326-->
<!DOCTYPE svg
PUBLIC "-//W3C//DTD SVG 1.1//EN"
       "http://www.w3.org/Graphics/SVG/1.1/DTD/svg11.dtd">
<svg version="1.1" xmlns="http://www.w3.org/2000/svg" xmlns:xlink="http://www.w3.org/1999/xlink" viewBox="0 0 381.592 381.885">
 <g>
  <rect height="381.885" opacity="0" width="381.592" x="0" y="0"/>
  <path d="M190.723 381.592C296.045 381.592 381.592 296.191 381.592 190.869C381.592 85.5469 296.045 0 190.723 0C85.4004 0 0 85.5469 0 190.869C0 296.191 85.4004 381.592 190.723 381.592ZM190.723 354.346C100.342 354.346 27.2461 281.25 27.2461 190.869C27.2461 100.488 100.342 27.3926 190.723 27.3926C281.104 27.3926 354.199 100.488 354.199 190.869C354.199 281.25 281.104 354.346 190.723 354.346Z" fill="#1f1f1f" fill-opacity="0.85"/>
  <path d="M91.5527 182.666L91.5527 263.672C91.5527 270.703 96.6797 274.512 102.832 274.512C108.984 274.512 114.111 270.557 114.111 263.672L114.111 166.846L108.252 166.846C97.998 166.846 91.5527 172.852 91.5527 182.666ZM120.264 286.816L262.5 286.816C280.371 286.816 289.453 278.027 289.453 260.156L289.453 121.875C289.453 104.004 280.371 95.2148 262.5 95.2148L156.738 95.2148C138.574 95.2148 129.639 104.004 129.639 121.875L129.639 269.238C129.639 278.32 127.148 283.301 120.264 286.816ZM165.674 147.949C162.305 147.949 159.814 145.605 159.814 142.236C159.814 139.16 162.158 136.816 165.674 136.816L253.564 136.816C256.934 136.816 259.277 139.16 259.277 142.236C259.277 145.605 256.787 147.949 253.564 147.949ZM165.674 180.029C162.305 180.029 159.814 177.539 159.814 174.463C159.814 171.094 162.158 168.75 165.674 168.75L253.564 168.75C256.934 168.75 259.277 171.094 259.277 174.463C259.277 177.539 256.787 180.029 253.564 180.029ZM221.484 212.842C218.115 212.842 215.771 210.498 215.771 207.275C215.771 204.199 218.115 201.562 221.484 201.562L253.564 201.562C256.787 201.562 259.131 204.199 259.131 207.275C259.131 210.498 256.787 212.842 253.564 212.842ZM221.484 244.482C218.115 244.482 215.771 242.285 215.771 238.916C215.771 235.693 218.115 233.203 221.484 233.203L253.564 233.203C256.787 233.203 259.131 235.693 259.131 238.916C259.131 242.285 256.934 244.482 253.564 244.482ZM169.775 244.482C163.477 244.482 159.521 240.674 159.521 234.229L159.521 211.963C159.521 205.518 163.477 201.562 169.775 201.562L192.627 201.562C199.072 201.562 203.027 205.518 203.027 211.963L203.027 234.229C203.027 240.674 199.072 244.482 192.627 244.482Z" fill="#1f1f1f" fill-opacity="0.85"/>
 </g>
</svg>
