<svg viewBox="0 0 381.592 381.885" xmlns="http://www.w3.org/2000/svg"><path d="m0 0h381.592v381.885h-381.592z" opacity="0"/><g fill="#1f1f1f" fill-opacity=".85"><path d="m190.723 381.592c105.322 0 190.869-85.401 190.869-190.723 0-105.3221-85.547-190.869-190.869-190.869-105.3226 0-190.723 85.5469-190.723 190.869 0 105.322 85.4004 190.723 190.723 190.723zm0-27.246c-90.381 0-163.4769-73.096-163.4769-163.477s73.0959-163.4764 163.4769-163.4764 163.476 73.0954 163.476 163.4764-73.095 163.477-163.476 163.477z"/><path d="m113.232 204.639h154.834c8.936 0 15.235-4.981 15.235-13.33 0-8.643-5.86-13.77-15.235-13.77h-154.834c-9.228 0-15.234 5.127-15.234 13.77 0 8.349 6.299 13.33 15.234 13.33z"/></g></svg>