<?xml version="1.0" encoding="UTF-8"?>
<!--Generator: Apple Native CoreSVG 326-->
<!DOCTYPE svg
PUBLIC "-//W3C//DTD SVG 1.1//EN"
       "http://www.w3.org/Graphics/SVG/1.1/DTD/svg11.dtd">
<svg version="1.1" xmlns="http://www.w3.org/2000/svg" xmlns:xlink="http://www.w3.org/1999/xlink" viewBox="0 0 381.592 381.885">
 <g>
  <rect height="381.885" opacity="0" width="381.592" x="0" y="0"/>
  <path d="M190.723 381.592C296.045 381.592 381.592 296.191 381.592 190.869C381.592 85.5469 296.045 0 190.723 0C85.4004 0 0 85.5469 0 190.869C0 296.191 85.4004 381.592 190.723 381.592ZM190.723 354.346C100.342 354.346 27.2461 281.25 27.2461 190.869C27.2461 100.488 100.342 27.3926 190.723 27.3926C281.104 27.3926 354.199 100.488 354.199 190.869C354.199 281.25 281.104 354.346 190.723 354.346Z" fill="#1a1a1a" fill-opacity="0.85"/>
  <path d="M149.414 118.213C149.414 136.963 162.158 152.637 179.297 157.471L179.297 261.475C179.297 286.963 183.398 308.057 190.576 308.057C197.754 308.057 201.709 287.402 201.709 261.475L201.709 157.471C219.141 152.783 231.738 137.109 231.738 118.213C231.738 95.5078 213.281 77.0508 190.576 77.0508C167.871 77.0508 149.414 95.5078 149.414 118.213ZM166.699 107.666C166.553 100.342 172.998 94.1895 180.029 94.1895C187.354 94.1895 193.359 100.342 193.213 107.666C193.213 114.697 187.354 120.85 180.029 120.85C172.998 120.85 166.846 114.697 166.699 107.666Z" fill="#1a1a1a" fill-opacity="0.85"/>
 </g>
</svg>
