<?xml version="1.0" encoding="UTF-8"?>
<!--Generator: Apple Native CoreSVG 326-->
<!DOCTYPE svg
PUBLIC "-//W3C//DTD SVG 1.1//EN"
       "http://www.w3.org/Graphics/SVG/1.1/DTD/svg11.dtd">
<svg version="1.1" xmlns="http://www.w3.org/2000/svg" xmlns:xlink="http://www.w3.org/1999/xlink" viewBox="0 0 381.592 381.885">
 <g>
  <rect height="381.885" opacity="0" width="381.592" x="0" y="0"/>
  <path d="M190.723 381.592C296.045 381.592 381.592 296.191 381.592 190.869C381.592 85.5469 296.045 0 190.723 0C85.4004 0 0 85.5469 0 190.869C0 296.191 85.4004 381.592 190.723 381.592ZM190.723 354.346C100.342 354.346 27.2461 281.25 27.2461 190.869C27.2461 100.488 100.342 27.3926 190.723 27.3926C281.104 27.3926 354.199 100.488 354.199 190.869C354.199 281.25 281.104 354.346 190.723 354.346Z" fill="#1a1a1a" fill-opacity="0.85"/>
  <path d="M104.15 190.869C104.15 198.633 109.717 204.053 117.92 204.053L177.1 204.053L177.1 263.379C177.1 271.436 182.666 277.148 190.43 277.148C198.486 277.148 204.053 271.582 204.053 263.379L204.053 204.053L263.379 204.053C271.436 204.053 277.148 198.633 277.148 190.869C277.148 182.666 271.582 177.1 263.379 177.1L204.053 177.1L204.053 117.92C204.053 109.717 198.486 104.004 190.43 104.004C182.666 104.004 177.1 109.717 177.1 117.92L177.1 177.1L117.92 177.1C109.717 177.1 104.15 182.666 104.15 190.869Z" fill="#1a1a1a" fill-opacity="0.85"/>
 </g>
</svg>
