<svg viewBox="0 0 381.592 381.885" xmlns="http://www.w3.org/2000/svg"><path d="m0 0h381.59201v381.88501h-381.59201z" opacity="0"/><g fill="#1a1a1a" fill-opacity=".85"><path d="m190.723 381.592c105.322 0 190.869-85.401 190.869-190.723 0-105.3221-85.547-190.869-190.869-190.869-105.3226 0-190.723 85.5469-190.723 190.869 0 105.322 85.4004 190.723 190.723 190.723zm0-27.246c-90.381 0-163.4769-73.096-163.4769-163.477s73.0959-163.4764 163.4769-163.4764 163.476 73.0954 163.476 163.4764-73.095 163.477-163.476 163.477z"/><path d="m154.98 264.697 107.813-64.013c7.617-4.541 7.471-14.795 0-19.336l-107.813-64.307c-7.617-4.541-17.724-.879-17.724 7.617v132.569c0 8.496 9.521 12.451 17.724 7.47z"/></g></svg>