<svg viewBox="0 0 381.592 381.885" xmlns="http://www.w3.org/2000/svg"><path d="m0 0h381.592v381.885h-381.592z" opacity="0"/><g fill="#1a1a1a" fill-opacity=".85"><path d="m190.723 381.592c105.322 0 190.869-85.401 190.869-190.723 0-105.3221-85.547-190.869-190.869-190.869-105.3226 0-190.723 85.5469-190.723 190.869 0 105.322 85.4004 190.723 190.723 190.723zm0-27.246c-90.381 0-163.4769-73.096-163.4769-163.477s73.0959-163.4764 163.4769-163.4764 163.476 73.0954 163.476 163.4764-73.095 163.477-163.476 163.477z"/><path d="m140.186 259.277h100.781c11.279 0 18.164-6.591 18.164-17.724v-101.514c0-10.986-6.885-17.725-18.164-17.725h-100.781c-11.28 0-18.018 6.739-18.018 17.725v101.514c0 11.133 6.738 17.724 18.018 17.724z"/></g></svg>